<svg width="167" height="39" viewBox="0 0 167 39" fill="none" xmlns="http://www.w3.org/2000/svg">
<path d="M47.296 27.168C46.176 27.168 45.168 26.976 44.272 26.592C43.376 26.192 42.672 25.632 42.16 24.912C41.648 24.192 41.392 23.352 41.392 22.392H44.32C44.384 23.112 44.664 23.704 45.16 24.168C45.672 24.632 46.384 24.864 47.296 24.864C48.24 24.864 48.976 24.64 49.504 24.192C50.032 23.728 50.296 23.136 50.296 22.416C50.296 21.856 50.128 21.4 49.792 21.048C49.472 20.696 49.064 20.424 48.568 20.232C48.088 20.04 47.416 19.832 46.552 19.608C45.464 19.32 44.576 19.032 43.888 18.744C43.216 18.44 42.64 17.976 42.16 17.352C41.68 16.728 41.44 15.896 41.44 14.856C41.44 13.896 41.68 13.056 42.16 12.336C42.64 11.616 43.312 11.064 44.176 10.68C45.04 10.296 46.04 10.104 47.176 10.104C48.792 10.104 50.112 10.512 51.136 11.328C52.176 12.128 52.752 13.232 52.864 14.64H49.84C49.792 14.032 49.504 13.512 48.976 13.08C48.448 12.648 47.752 12.432 46.888 12.432C46.104 12.432 45.464 12.632 44.968 13.032C44.472 13.432 44.224 14.008 44.224 14.76C44.224 15.272 44.376 15.696 44.68 16.032C45 16.352 45.4 16.608 45.88 16.8C46.36 16.992 47.016 17.2 47.848 17.424C48.952 17.728 49.848 18.032 50.536 18.336C51.24 18.64 51.832 19.112 52.312 19.752C52.808 20.376 53.056 21.216 53.056 22.272C53.056 23.12 52.824 23.92 52.36 24.672C51.912 25.424 51.248 26.032 50.368 26.496C49.504 26.944 48.48 27.168 47.296 27.168ZM58.0604 10.32V27H55.3244V10.32H58.0604ZM66.1885 27.168C65.0685 27.168 64.0605 26.976 63.1645 26.592C62.2685 26.192 61.5645 25.632 61.0525 24.912C60.5405 24.192 60.2845 23.352 60.2845 22.392H63.2125C63.2765 23.112 63.5565 23.704 64.0525 24.168C64.5645 24.632 65.2765 24.864 66.1885 24.864C67.1325 24.864 67.8685 24.64 68.3965 24.192C68.9245 23.728 69.1885 23.136 69.1885 22.416C69.1885 21.856 69.0205 21.4 68.6845 21.048C68.3645 20.696 67.9565 20.424 67.4605 20.232C66.9805 20.04 66.3085 19.832 65.4445 19.608C64.3565 19.32 63.4685 19.032 62.7805 18.744C62.1085 18.44 61.5325 17.976 61.0525 17.352C60.5725 16.728 60.3325 15.896 60.3325 14.856C60.3325 13.896 60.5725 13.056 61.0525 12.336C61.5325 11.616 62.2045 11.064 63.0685 10.68C63.9325 10.296 64.9325 10.104 66.0685 10.104C67.6845 10.104 69.0045 10.512 70.0285 11.328C71.0685 12.128 71.6445 13.232 71.7565 14.64H68.7325C68.6845 14.032 68.3965 13.512 67.8685 13.08C67.3405 12.648 66.6445 12.432 65.7805 12.432C64.9965 12.432 64.3565 12.632 63.8605 13.032C63.3645 13.432 63.1165 14.008 63.1165 14.76C63.1165 15.272 63.2685 15.696 63.5725 16.032C63.8925 16.352 64.2925 16.608 64.7725 16.8C65.2525 16.992 65.9085 17.2 66.7405 17.424C67.8445 17.728 68.7405 18.032 69.4285 18.336C70.1325 18.64 70.7245 19.112 71.2045 19.752C71.7005 20.376 71.9485 21.216 71.9485 22.272C71.9485 23.12 71.7165 23.92 71.2525 24.672C70.8045 25.424 70.1405 26.032 69.2605 26.496C68.3965 26.944 67.3725 27.168 66.1885 27.168ZM84.9929 10.32V12.552H80.5529V27H77.8169V12.552H73.3529V10.32H84.9929ZM104.198 20.064C104.198 20.56 104.166 21.008 104.102 21.408H93.9981C94.0781 22.464 94.4701 23.312 95.1741 23.952C95.8781 24.592 96.7421 24.912 97.7661 24.912C99.2381 24.912 100.278 24.296 100.886 23.064H103.838C103.438 24.28 102.71 25.28 101.654 26.064C100.614 26.832 99.3181 27.216 97.7661 27.216C96.5021 27.216 95.3661 26.936 94.3581 26.376C93.3661 25.8 92.5821 25 92.0061 23.976C91.4461 22.936 91.1661 21.736 91.1661 20.376C91.1661 19.016 91.4381 17.824 91.9821 16.8C92.5421 15.76 93.3181 14.96 94.3101 14.4C95.3181 13.84 96.4701 13.56 97.7661 13.56C99.0141 13.56 100.126 13.832 101.102 14.376C102.078 14.92 102.838 15.688 103.382 16.68C103.926 17.656 104.198 18.784 104.198 20.064ZM101.342 19.2C101.326 18.192 100.966 17.384 100.262 16.776C99.5581 16.168 98.6861 15.864 97.6461 15.864C96.7021 15.864 95.8941 16.168 95.2221 16.776C94.5501 17.368 94.1501 18.176 94.0221 19.2H101.342ZM111.043 24.552L114.787 13.776H117.691L112.651 27H109.387L104.371 13.776H107.299L111.043 24.552ZM130.919 20.064C130.919 20.56 130.887 21.008 130.823 21.408H120.719C120.799 22.464 121.191 23.312 121.895 23.952C122.599 24.592 123.463 24.912 124.487 24.912C125.959 24.912 126.999 24.296 127.607 23.064H130.559C130.159 24.28 129.431 25.28 128.375 26.064C127.335 26.832 126.039 27.216 124.487 27.216C123.223 27.216 122.087 26.936 121.079 26.376C120.087 25.8 119.303 25 118.727 23.976C118.167 22.936 117.887 21.736 117.887 20.376C117.887 19.016 118.159 17.824 118.703 16.8C119.263 15.76 120.039 14.96 121.031 14.4C122.039 13.84 123.191 13.56 124.487 13.56C125.735 13.56 126.847 13.832 127.823 14.376C128.799 14.92 129.559 15.688 130.103 16.68C130.647 17.656 130.919 18.784 130.919 20.064ZM128.063 19.2C128.047 18.192 127.687 17.384 126.983 16.776C126.279 16.168 125.407 15.864 124.367 15.864C123.423 15.864 122.615 16.168 121.943 16.776C121.271 17.368 120.871 18.176 120.743 19.2H128.063ZM139.323 13.56C140.363 13.56 141.291 13.776 142.107 14.208C142.939 14.64 143.587 15.28 144.051 16.128C144.515 16.976 144.747 18 144.747 19.2V27H142.035V19.608C142.035 18.424 141.739 17.52 141.147 16.896C140.555 16.256 139.747 15.936 138.723 15.936C137.699 15.936 136.883 16.256 136.275 16.896C135.683 17.52 135.387 18.424 135.387 19.608V27H132.651V13.776H135.387V15.288C135.835 14.744 136.403 14.32 137.091 14.016C137.795 13.712 138.539 13.56 139.323 13.56ZM150.469 16.008V23.328C150.469 23.824 150.581 24.184 150.805 24.408C151.045 24.616 151.445 24.72 152.005 24.72H153.685V27H151.525C150.293 27 149.349 26.712 148.693 26.136C148.037 25.56 147.709 24.624 147.709 23.328V16.008H146.149V13.776H147.709V10.488H150.469V13.776H153.685V16.008H150.469ZM160.047 27.216C159.007 27.216 158.071 27.032 157.239 26.664C156.423 26.28 155.775 25.768 155.295 25.128C154.815 24.472 154.559 23.744 154.527 22.944H157.359C157.407 23.504 157.671 23.976 158.151 24.36C158.647 24.728 159.263 24.912 159.999 24.912C160.767 24.912 161.359 24.768 161.775 24.48C162.207 24.176 162.423 23.792 162.423 23.328C162.423 22.832 162.183 22.464 161.703 22.224C161.239 21.984 160.495 21.72 159.471 21.432C158.479 21.16 157.671 20.896 157.047 20.64C156.423 20.384 155.879 19.992 155.415 19.464C154.967 18.936 154.743 18.24 154.743 17.376C154.743 16.672 154.951 16.032 155.367 15.456C155.783 14.864 156.375 14.4 157.143 14.064C157.927 13.728 158.823 13.56 159.831 13.56C161.335 13.56 162.543 13.944 163.455 14.712C164.383 15.464 164.879 16.496 164.943 17.808H162.207C162.159 17.216 161.919 16.744 161.487 16.392C161.055 16.04 160.471 15.864 159.735 15.864C159.015 15.864 158.463 16 158.079 16.272C157.695 16.544 157.503 16.904 157.503 17.352C157.503 17.704 157.631 18 157.887 18.24C158.143 18.48 158.455 18.672 158.823 18.816C159.191 18.944 159.735 19.112 160.455 19.32C161.415 19.576 162.199 19.84 162.807 20.112C163.431 20.368 163.967 20.752 164.415 21.264C164.863 21.776 165.095 22.456 165.111 23.304C165.111 24.056 164.903 24.728 164.487 25.32C164.071 25.912 163.479 26.376 162.711 26.712C161.959 27.048 161.071 27.216 160.047 27.216Z" fill="#081024"/>
<path d="M2.59179 16.6949L2.09449 17.179C-0.698164 19.8979 -0.698164 24.306 2.09449 27.0249L12.8397 37.4861C14.5851 39.1854 17.4149 39.1854 19.1603 37.4861L29.9055 27.0249C32.6982 24.306 32.6982 19.8979 29.9055 17.179L29.4082 16.6948L16.6321 29.1334C16.283 29.4732 15.717 29.4732 15.3679 29.1334L2.59179 16.6949Z" fill="#081024"/>
<path d="M7.83131 15.5335C5.38773 13.1545 5.38773 9.29734 7.83131 6.91834L14.152 0.764679C15.1992 -0.254893 16.8972 -0.254893 17.9444 0.764679L24.2651 6.91834C26.7087 9.29734 26.7087 13.1545 24.2651 15.5335L17.9444 21.6871C16.8972 22.7067 15.1992 22.7067 14.152 21.6871L7.83131 15.5335Z" fill="#742FF6"/>
</svg>
