<svg width="64" height="77" viewBox="0 0 64 77" fill="none" xmlns="http://www.w3.org/2000/svg">
<path d="M5.18359 33.1652L4.18898 34.1271C-1.39633 39.5282 -1.39633 48.2852 4.18898 53.6864L25.6793 74.4682C29.1701 77.8439 34.8299 77.8439 38.3207 74.4682L59.811 53.6864C65.3963 48.2852 65.3963 39.5282 59.811 34.1271L58.8164 33.1652L33.2641 57.8751C32.566 58.5502 31.434 58.5502 30.7359 57.8751L5.18359 33.1652Z" fill="#295BA7"/>
<path d="M15.6626 30.8581C10.7755 26.1321 10.7755 18.4697 15.6626 13.7437L28.304 1.51908C30.3985 -0.50636 33.7943 -0.506359 35.8888 1.51908L48.5302 13.7437C53.4173 18.4697 53.4173 26.1321 48.5302 30.8581L35.8888 43.0827C33.7943 45.1081 30.3985 45.1081 28.304 43.0827L15.6626 30.8581Z" fill="#78B42B"/>
</svg>
