<svg width="32" height="39" viewBox="0 0 32 39" fill="none" xmlns="http://www.w3.org/2000/svg">
<path d="M2.59179 16.6949L2.09449 17.179C-0.698164 19.8979 -0.698164 24.306 2.09449 27.0249L12.8397 37.4861C14.5851 39.1854 17.4149 39.1854 19.1603 37.4861L29.9055 27.0249C32.6982 24.306 32.6982 19.8979 29.9055 17.179L29.4082 16.6948L16.6321 29.1334C16.283 29.4732 15.717 29.4732 15.3679 29.1334L2.59179 16.6949Z" fill="#295BA7"/>
<path d="M7.83131 15.5335C5.38773 13.1545 5.38773 9.29734 7.83131 6.91834L14.152 0.764679C15.1992 -0.254893 16.8972 -0.254893 17.9444 0.764679L24.2651 6.91834C26.7087 9.29734 26.7087 13.1545 24.2651 15.5335L17.9444 21.6871C16.8972 22.7067 15.1992 22.7067 14.152 21.6871L7.83131 15.5335Z" fill="#78B42B"/>
</svg>
